<svg width="147" height="93" viewBox="0 0 147 93" fill="none" xmlns="http://www.w3.org/2000/svg">
<g clip-path="url(#clip0_201_2216)">
<path d="M43.5456 0C47.9502 0 51.9658 0.390381 55.5931 1.17262C59.2205 1.95412 62.3294 3.23617 64.9199 5.01432C67.5105 6.79469 69.5186 9.16138 70.9437 12.1144C72.3688 15.0674 73.0813 18.7139 73.0813 23.0554C73.0813 27.7451 72.0231 31.6526 69.9076 34.7779C67.7906 37.9039 64.6611 40.465 60.5161 42.4628C66.2156 44.113 70.4687 47.0017 73.2761 51.1243C76.0806 55.25 77.4873 60.2221 77.4873 66.0386C77.4873 70.7277 76.5807 74.7882 74.7659 78.2188C72.9533 81.6502 70.5121 84.4501 67.448 86.6179C64.3817 88.7901 60.8838 90.3953 56.9549 91.4393C53.0015 92.4833 48.9303 93.0082 44.8427 93.0008H0.0197754V0H43.5456ZM40.9551 37.6444C44.5824 37.6444 47.5612 36.7764 49.8937 35.0389C52.2254 33.3029 53.3908 30.48 53.3908 26.5725C53.3908 24.4025 53.0026 22.6214 52.2254 21.2321C51.4481 19.8436 50.4121 18.756 49.1164 17.976C47.8208 17.1938 46.331 16.6533 44.6471 16.3472C42.9151 16.0396 41.1594 15.8872 39.4006 15.8917H20.358V37.6451H40.9551V37.6444ZM42.1206 77.1098C44.1059 77.1098 46.0068 76.9139 47.8201 76.5235C49.6334 76.1324 51.2305 75.481 52.6136 74.5686C53.9938 73.6585 55.0953 72.42 55.9167 70.8563C56.7366 69.294 57.1469 67.297 57.1469 64.8646C57.1469 60.0905 55.8071 56.6821 53.1313 54.6407C50.4532 52.6001 46.9127 51.579 42.5088 51.579H20.358V77.1083L42.1206 77.1098V77.1098ZM103.082 75.1564C105.845 77.8506 109.818 79.194 115 79.194C118.712 79.194 121.908 78.2624 124.585 76.3941C127.262 74.5294 128.903 72.5524 129.508 70.4674H145.7C143.11 78.5427 139.136 84.3185 133.783 87.7905C128.427 91.2648 121.949 93.0008 114.35 93.0008C109.083 93.0008 104.332 92.1542 100.101 90.4604C95.8681 88.768 92.2834 86.3577 89.3495 83.2317C86.4126 80.1064 84.1457 76.3749 82.5478 72.0311C80.9492 67.6904 80.1521 62.9134 80.1521 57.7031C80.1521 52.6681 80.9705 47.9791 82.6132 43.6369C84.2523 39.2961 86.5832 35.5402 89.6091 32.3691C92.6298 29.2009 96.2365 26.7041 100.426 24.8801C104.613 23.0561 109.255 22.1452 114.351 22.1452C120.051 22.1452 125.016 23.252 129.25 25.4664C133.48 27.6801 136.956 30.6574 139.678 34.3882C142.398 38.1227 144.361 42.3785 145.573 47.1525C146.782 51.9295 147.212 56.9216 146.869 62.1319H98.5491C98.8072 68.1222 100.316 72.4659 103.082 75.1564V75.1564ZM123.873 39.7279C121.671 37.2976 118.323 36.0806 113.834 36.0806C110.897 36.0806 108.458 36.5812 106.516 37.5786C104.572 38.5789 103.017 39.8136 101.851 41.2909C100.686 42.7681 99.8639 44.3319 99.3903 45.9799C98.9146 47.6301 98.6337 49.1066 98.5476 50.4086H128.472C127.608 45.7189 126.076 42.1596 123.873 39.7279V39.7279ZM95.4064 4.72227H132.794V15.1457H95.4064V4.72227Z" fill="#1769FF"/>
</g>
<defs>
<clipPath id="clip0_201_2216">
<rect width="147" height="93" fill="white"/>
</clipPath>
</defs>
</svg>
