<svg width="36" height="36" viewBox="0 0 36 36" fill="none" xmlns="http://www.w3.org/2000/svg">
<path d="M33 15H3M3 12.3L3 23.7C3 25.3802 3 26.2202 3.32698 26.862C3.6146 27.4265 4.07354 27.8854 4.63803 28.173C5.27976 28.5 6.11984 28.5 7.8 28.5L28.2 28.5C29.8802 28.5 30.7202 28.5 31.362 28.173C31.9265 27.8854 32.3854 27.4265 32.673 26.862C33 26.2202 33 25.3802 33 23.7V12.3C33 10.6198 33 9.77977 32.673 9.13803C32.3854 8.57354 31.9265 8.1146 31.362 7.82698C30.7202 7.5 29.8802 7.5 28.2 7.5L7.8 7.5C6.11984 7.5 5.27976 7.5 4.63803 7.82698C4.07354 8.1146 3.6146 8.57354 3.32698 9.13803C3 9.77976 3 10.6198 3 12.3Z" stroke="white" stroke-width="2" stroke-linecap="round" stroke-linejoin="round"/>
</svg>
