<svg width="19" height="18" viewBox="0 0 19 18" fill="none" xmlns="http://www.w3.org/2000/svg">
<path d="M9.5 1.5C8.51509 1.5 7.53982 1.69399 6.62987 2.0709C5.71993 2.44781 4.89314 3.00026 4.1967 3.6967C2.79018 5.10322 2 7.01088 2 9C2 12.315 4.1525 15.1275 7.13 16.125C7.505 16.185 7.625 15.9525 7.625 15.75V14.4825C5.5475 14.9325 5.105 13.4775 5.105 13.4775C4.76 12.6075 4.2725 12.375 4.2725 12.375C3.59 11.91 4.325 11.925 4.325 11.925C5.075 11.9775 5.4725 12.6975 5.4725 12.6975C6.125 13.8375 7.2275 13.5 7.655 13.32C7.7225 12.8325 7.9175 12.5025 8.1275 12.315C6.4625 12.1275 4.715 11.4825 4.715 8.625C4.715 7.7925 5 7.125 5.4875 6.5925C5.4125 6.405 5.15 5.625 5.5625 4.6125C5.5625 4.6125 6.1925 4.41 7.625 5.3775C8.2175 5.2125 8.8625 5.13 9.5 5.13C10.1375 5.13 10.7825 5.2125 11.375 5.3775C12.8075 4.41 13.4375 4.6125 13.4375 4.6125C13.85 5.625 13.5875 6.405 13.5125 6.5925C14 7.125 14.285 7.7925 14.285 8.625C14.285 11.49 12.53 12.12 10.8575 12.3075C11.1275 12.54 11.375 12.9975 11.375 13.695V15.75C11.375 15.9525 11.495 16.1925 11.8775 16.125C14.855 15.12 17 12.315 17 9C17 8.01509 16.806 7.03982 16.4291 6.12987C16.0522 5.21993 15.4997 4.39314 14.8033 3.6967C14.1069 3.00026 13.2801 2.44781 12.3701 2.0709C11.4602 1.69399 10.4849 1.5 9.5 1.5V1.5Z" fill="white"/>
</svg>
