<svg width="19" height="18" viewBox="0 0 19 18" fill="none" xmlns="http://www.w3.org/2000/svg">
<path d="M13.25 2.25H5.75C4.95435 2.25 4.19129 2.56607 3.62868 3.12868C3.06607 3.69129 2.75 4.45435 2.75 5.25V12.75C2.75 13.5456 3.06607 14.3087 3.62868 14.8713C4.19129 15.4339 4.95435 15.75 5.75 15.75H13.25C14.0456 15.75 14.8087 15.4339 15.3713 14.8713C15.9339 14.3087 16.25 13.5456 16.25 12.75V5.25C16.25 4.45435 15.9339 3.69129 15.3713 3.12868C14.8087 2.56607 14.0456 2.25 13.25 2.25Z" stroke="#FDFDFD" stroke-width="1.5" stroke-linejoin="round"/>
<path d="M9.5 12C10.2956 12 11.0587 11.6839 11.6213 11.1213C12.1839 10.5587 12.5 9.79565 12.5 9C12.5 8.20435 12.1839 7.44129 11.6213 6.87868C11.0587 6.31607 10.2956 6 9.5 6C8.70435 6 7.94129 6.31607 7.37868 6.87868C6.81607 7.44129 6.5 8.20435 6.5 9C6.5 9.79565 6.81607 10.5587 7.37868 11.1213C7.94129 11.6839 8.70435 12 9.5 12V12Z" stroke="#FDFDFD" stroke-width="1.5" stroke-linejoin="round"/>
<path d="M13.625 5.625C13.8239 5.625 14.0147 5.54598 14.1553 5.40533C14.296 5.26468 14.375 5.07391 14.375 4.875C14.375 4.67609 14.296 4.48532 14.1553 4.34467C14.0147 4.20402 13.8239 4.125 13.625 4.125C13.4261 4.125 13.2353 4.20402 13.0947 4.34467C12.954 4.48532 12.875 4.67609 12.875 4.875C12.875 5.07391 12.954 5.26468 13.0947 5.40533C13.2353 5.54598 13.4261 5.625 13.625 5.625Z" fill="#FDFDFD"/>
</svg>
