<svg width="19" height="19" viewBox="0 0 19 19" fill="none" xmlns="http://www.w3.org/2000/svg">
<path d="M16.4935 0.393555H2.68308C1.41384 0.393555 0.381348 1.42562 0.381348 2.6958V16.5093C0.381348 17.7795 1.41384 18.8115 2.68308 18.8115H16.4935C17.7627 18.8115 18.7952 17.7795 18.7952 16.5093V2.6958C18.7952 1.42562 17.7627 0.393555 16.4935 0.393555ZM12.0413 3.76863C12.0413 2.95496 13.2711 2.95496 13.2711 3.76863V11.9705C13.2711 12.7842 12.0413 12.7842 12.0413 11.9705V3.76863ZM8.97665 3.46014C8.97665 2.64646 10.2064 2.64646 10.2064 3.46014V12.3613C10.2064 13.1749 8.97665 13.1749 8.97665 12.3613V3.46014ZM5.90553 3.76863C5.90553 2.95496 7.13531 2.95496 7.13531 3.76863V11.9705C7.13531 12.7842 5.90553 12.7842 5.90553 11.9705V3.76863ZM2.83433 4.99805C2.83433 4.18371 4.06411 4.18371 4.06411 4.99805V10.5195C4.06411 11.3332 2.83433 11.3332 2.83433 10.5195V4.99805ZM16.1252 14.3636C13.1329 16.9533 6.19491 17.0519 3.0514 14.3636C2.4398 13.8373 3.23551 12.9039 3.84712 13.4302C6.55659 15.7035 12.7318 15.6462 15.3295 13.4302C15.9411 12.8993 16.7434 13.8327 16.1252 14.3636ZM16.3423 10.5195C16.3423 11.3332 15.1125 11.3332 15.1125 10.5195V4.99805C15.1125 4.18371 16.3423 4.18371 16.3423 4.99805V10.5195Z" fill="#111111"/>
</svg>
