<svg width="18" height="18" viewBox="0 0 18 18" fill="none" xmlns="http://www.w3.org/2000/svg">
<path d="M15.75 0H2.25C1.00848 0 0 1.00848 0 2.25V15.75C0 16.9915 1.00848 18 2.25 18H15.75C16.9915 18 18 16.9915 18 15.75V2.25C18 1.00848 16.9915 0 15.75 0ZM11.3987 3.29866C11.3987 2.50312 12.6 2.50312 12.6 3.29866V11.3143C12.6 12.1098 11.3987 12.1098 11.3987 11.3143V3.29866ZM8.40134 2.99732C8.40134 2.20179 9.60268 2.20179 9.60268 2.99732V11.696C9.60268 12.4915 8.40134 12.4915 8.40134 11.696V2.99732ZM5.4 3.29866C5.4 2.50312 6.60134 2.50312 6.60134 3.29866V11.3143C6.60134 12.1098 5.4 12.1098 5.4 11.3143V3.29866ZM2.39866 4.5C2.39866 3.70446 3.6 3.70446 3.6 4.5V9.89598C3.6 10.6915 2.39866 10.6915 2.39866 9.89598V4.5V4.5ZM15.3924 13.6527C12.4674 16.1839 5.68125 16.2804 2.61161 13.6527C2.00893 13.1384 2.78839 12.2263 3.39107 12.7406C6.03884 14.9625 12.0737 14.9063 14.6129 12.7406C15.2116 12.2223 15.9911 13.1344 15.3924 13.6527V13.6527ZM15.6013 9.89598C15.6013 10.6915 14.4 10.6915 14.4 9.89598V4.5C14.4 3.70446 15.6013 3.70446 15.6013 4.5V9.89598Z" fill="url(#paint0_linear_242_1633)"/>
<defs>
<linearGradient id="paint0_linear_242_1633" x1="9" y1="0" x2="9" y2="18" gradientUnits="userSpaceOnUse">
<stop stop-color="white" stop-opacity="0.6"/>
<stop offset="1" stop-color="white" stop-opacity="0.9"/>
</linearGradient>
</defs>
</svg>
