<svg width="19" height="18" viewBox="0 0 19 18" fill="none" xmlns="http://www.w3.org/2000/svg">
<path fill-rule="evenodd" clip-rule="evenodd" d="M7.57175 6.72675H10.3572V8.11425C10.7585 7.31625 11.7875 6.59925 13.3332 6.59925C16.2965 6.59925 17 8.18775 17 11.1022V16.5H14V11.766C14 10.1062 13.5987 9.17025 12.5772 9.17025C11.1605 9.17025 10.5717 10.179 10.5717 11.7652V16.5H7.57175V6.72675V6.72675ZM2.4275 16.3725H5.4275V6.59925H2.4275V16.3725V16.3725ZM5.85725 3.4125C5.85736 3.66396 5.80749 3.91293 5.71054 4.14494C5.61359 4.37695 5.47149 4.58738 5.2925 4.764C4.9298 5.12447 4.43886 5.32624 3.9275 5.325C3.41704 5.32466 2.92723 5.1234 2.564 4.76475C2.38566 4.58753 2.24404 4.37687 2.14726 4.14482C2.05048 3.91278 2.00043 3.66392 2 3.4125C2 2.90475 2.2025 2.41875 2.56475 2.06025C2.92766 1.70112 3.41768 1.49978 3.92825 1.5C4.43975 1.5 4.93025 1.70175 5.2925 2.06025C5.654 2.41875 5.85725 2.90475 5.85725 3.4125Z" fill="#FDFDFD"/>
</svg>
