<svg width="155" height="94" viewBox="0 0 155 94" fill="none" xmlns="http://www.w3.org/2000/svg">
<path d="M21.7592 92H0.99787L32.6321 0.363634H57.5994L89.1889 92H68.4276L45.4737 21.304H44.7578L21.7592 92ZM20.4616 55.9808H69.5014V71.1044H20.4616V55.9808ZM115.678 93.2976C111.294 93.2976 107.386 92.5369 103.955 91.0156C100.525 89.4645 97.8106 87.1825 95.812 84.1697C93.8432 81.1271 92.8589 77.3388 92.8589 72.8047C92.8589 68.9865 93.5598 65.7798 94.9618 63.1847C96.3638 60.5895 98.2729 58.5014 100.689 56.9205C103.105 55.3395 105.85 54.1463 108.922 53.3409C112.024 52.5355 115.276 51.9688 118.676 51.6406C122.673 51.223 125.895 50.8352 128.341 50.4773C130.787 50.0895 132.562 49.5227 133.666 48.777C134.769 48.0312 135.321 46.9276 135.321 45.4659V45.1974C135.321 42.3636 134.426 40.1712 132.637 38.62C130.877 37.0689 128.371 36.2933 125.12 36.2933C121.689 36.2933 118.96 37.054 116.931 38.5753C114.903 40.0668 113.561 41.946 112.904 44.2131L95.275 42.7812C96.1699 38.6051 97.9299 34.9957 100.555 31.9531C103.18 28.8807 106.566 26.5241 110.712 24.8835C114.888 23.2131 119.72 22.3778 125.209 22.3778C129.027 22.3778 132.681 22.8253 136.171 23.7202C139.691 24.6151 142.808 26.0021 145.523 27.8814C148.267 29.7607 150.43 32.1768 152.011 35.13C153.592 38.0533 154.382 41.5582 154.382 45.6449V92H136.306V82.4695H135.769C134.665 84.6172 133.188 86.5114 131.339 88.152C129.49 89.7628 127.267 91.0305 124.672 91.9553C122.077 92.8501 119.079 93.2976 115.678 93.2976ZM121.137 80.1428C123.941 80.1428 126.417 79.5909 128.565 78.4872C130.713 77.3537 132.398 75.8324 133.621 73.9233C134.844 72.0142 135.455 69.8516 135.455 67.4354V60.142C134.859 60.5298 134.039 60.8878 132.995 61.2159C131.98 61.5142 130.832 61.7976 129.549 62.0661C128.267 62.3047 126.984 62.5284 125.701 62.7372C124.419 62.9162 123.255 63.0803 122.211 63.2294C119.974 63.5575 118.02 64.0795 116.35 64.7955C114.679 65.5114 113.382 66.4808 112.457 67.7038C111.532 68.897 111.07 70.3885 111.07 72.1783C111.07 74.7734 112.009 76.7571 113.889 78.1293C115.798 79.4716 118.214 80.1428 121.137 80.1428Z" fill="url(#paint0_linear_201_2219)"/>
<defs>
<linearGradient id="paint0_linear_201_2219" x1="80" y1="-2" x2="80" y2="94" gradientUnits="userSpaceOnUse">
<stop stop-color="white" stop-opacity="0.6"/>
<stop offset="1" stop-color="white" stop-opacity="0.9"/>
</linearGradient>
</defs>
</svg>
