<svg width="36" height="36" viewBox="0 0 36 36" fill="none" xmlns="http://www.w3.org/2000/svg">
<path d="M9 31.5H13.5M22.5 31.5H27M26.25 9.75V21.75M4.5 9.3L4.5 22.2C4.5 23.8802 4.5 24.7202 4.82698 25.362C5.1146 25.9265 5.57354 26.3854 6.13803 26.673C6.77976 27 7.61984 27 9.3 27L26.7 27C28.3802 27 29.2202 27 29.862 26.673C30.4265 26.3854 30.8854 25.9265 31.173 25.362C31.5 24.7202 31.5 23.8802 31.5 22.2V9.3C31.5 7.61984 31.5 6.77977 31.173 6.13803C30.8854 5.57354 30.4265 5.1146 29.862 4.82698C29.2202 4.5 28.3802 4.5 26.7 4.5L9.3 4.5C7.61984 4.5 6.77976 4.5 6.13803 4.82698C5.57354 5.1146 5.1146 5.57354 4.82698 6.13803C4.5 6.77976 4.5 7.61984 4.5 9.3ZM17.25 15.75C17.25 17.8211 15.5711 19.5 13.5 19.5C11.4289 19.5 9.75 17.8211 9.75 15.75C9.75 13.6789 11.4289 12 13.5 12C15.5711 12 17.25 13.6789 17.25 15.75Z" stroke="white" stroke-width="2" stroke-linecap="round" stroke-linejoin="round"/>
</svg>
