<svg width="36" height="36" viewBox="0 0 36 36" fill="none" xmlns="http://www.w3.org/2000/svg">
<path d="M13.8194 21.75C14.2877 22.6418 15.2228 23.25 16.3 23.25H19.5C21.1569 23.25 22.5 21.9069 22.5 20.2501C22.5 18.5932 21.1569 17.25 19.5 17.25H16.5C14.8431 17.25 13.5 15.9069 13.5 14.2501C13.5 12.5932 14.8431 11.2501 16.5 11.2501H19.7C20.7772 11.2501 21.7122 11.8583 22.1806 12.7501M18 9.00005V11.2501M18 23.25V25.5M30 18C30 25.3627 21.9691 30.7176 19.047 32.4224C18.7149 32.6161 18.5489 32.713 18.3145 32.7632C18.1327 32.8022 17.8673 32.8022 17.6855 32.7632C17.4511 32.713 17.2851 32.6161 16.953 32.4224C14.0309 30.7176 6 25.3627 6 18V10.8265C6 9.62718 6 9.02755 6.19614 8.51211C6.36941 8.05676 6.65097 7.65047 7.01649 7.32835C7.43024 6.96371 7.9917 6.75316 9.11461 6.33207L17.1573 3.31606C17.4691 3.19912 17.6251 3.14065 17.7855 3.11747C17.9278 3.09691 18.0722 3.09691 18.2145 3.11747C18.3749 3.14065 18.5309 3.19912 18.8427 3.31606L26.8854 6.33207C28.0083 6.75316 28.5698 6.96371 28.9835 7.32835C29.349 7.65047 29.6306 8.05676 29.8039 8.51211C30 9.02755 30 9.62718 30 10.8265V18Z" stroke="white" stroke-width="2" stroke-linecap="round" stroke-linejoin="round"/>
</svg>
