<svg width="19" height="18" viewBox="0 0 19 18" fill="none" xmlns="http://www.w3.org/2000/svg">
<path d="M17.345 4.5C16.7675 4.7625 16.145 4.935 15.5 5.0175C16.16 4.62 16.67 3.99 16.91 3.2325C16.2875 3.6075 15.5975 3.87 14.87 4.02C14.2775 3.375 13.445 3 12.5 3C10.7375 3 9.29753 4.44 9.29753 6.2175C9.29753 6.4725 9.32753 6.72 9.38003 6.9525C6.71003 6.8175 4.33253 5.535 2.75003 3.5925C2.47253 4.065 2.31503 4.62 2.31503 5.205C2.31503 6.3225 2.87753 7.3125 3.74753 7.875C3.21503 7.875 2.72003 7.725 2.28503 7.5V7.5225C2.28503 9.0825 3.39503 10.3875 4.86503 10.68C4.39308 10.8092 3.8976 10.8271 3.41753 10.7325C3.62123 11.3719 4.02018 11.9313 4.55829 12.3322C5.0964 12.7331 5.74662 12.9553 6.41753 12.9675C5.28025 13.8678 3.87053 14.3545 2.42003 14.3475C2.16503 14.3475 1.91003 14.3325 1.65503 14.3025C3.08003 15.2175 4.77503 15.75 6.59003 15.75C12.5 15.75 15.7475 10.845 15.7475 6.5925C15.7475 6.45 15.7475 6.315 15.74 6.1725C16.37 5.7225 16.91 5.1525 17.345 4.5V4.5Z" fill="#FDFDFD"/>
</svg>
