<svg width="36" height="36" viewBox="0 0 36 36" fill="none" xmlns="http://www.w3.org/2000/svg">
<path d="M28.5 15L7.50001 15M28.5 15L31.2962 19.6604C31.9229 20.7048 32.2363 21.2271 32.399 21.7892C32.5432 22.2874 32.6002 22.8067 32.5675 23.3242C32.5306 23.9083 32.338 24.4861 31.9528 25.6416L31.6411 26.5768C31.0509 28.3472 30.7559 29.2324 30.2086 29.8868C29.7253 30.4647 29.1047 30.912 28.4036 31.1878C27.6097 31.5 26.6767 31.5 24.8105 31.5L11.1895 31.5C9.32337 31.5 8.39031 31.5 7.5964 31.1878C6.89532 30.912 6.27469 30.4647 5.79141 29.8868C5.24413 29.2324 4.94907 28.3472 4.35896 26.5768L4.04721 25.6416C3.66203 24.4861 3.46944 23.9083 3.43254 23.3242C3.39984 22.8067 3.45684 22.2874 3.60104 21.7892C3.76377 21.2271 4.0771 20.7048 4.70378 19.6604L7.50001 15M28.5 15L29.1259 12.8093C29.4227 11.7707 29.571 11.2515 29.4545 10.8406C29.3524 10.4807 29.1195 10.172 28.8015 9.97494C28.4385 9.75 27.8984 9.75 26.8183 9.75L9.18176 9.75C8.10162 9.75 7.56155 9.75 7.19854 9.97493C6.88054 10.172 6.64765 10.4807 6.54555 10.8406C6.429 11.2515 6.57737 11.7707 6.8741 12.8093L7.50001 15M18 9.75H12.6964C11.915 9.75 11.1656 9.43393 10.613 8.87132C10.0604 8.30871 9.75001 7.54565 9.75001 6.75C9.75001 5.95435 10.0604 5.19129 10.613 4.62868C11.1656 4.06607 11.915 3.75 12.6964 3.75C16.8214 3.75 18 9.75 18 9.75ZM18 9.75H23.3036C24.085 9.75 24.8345 9.43393 25.387 8.87132C25.9396 8.30871 26.25 7.54565 26.25 6.75C26.25 5.95435 25.9396 5.19129 25.387 4.62868C24.8345 4.06607 24.085 3.75 23.3036 3.75C19.1786 3.75 18 9.75 18 9.75Z" stroke="white" stroke-width="2" stroke-linecap="round" stroke-linejoin="round"/>
</svg>
